<svg xmlns="http://www.w3.org/2000/svg" width="18.365" height="15.132" viewBox="0 0 18.365 15.132">
  <path id="twitter" d="M1392.511,635.524l1.847-.369a15.629,15.629,0,0,1-1.847,1.845s-.006,0-.009,0a5.89,5.89,0,0,0,.009,1.109c-3.53,15.21-16.518,8.486-16.518,8.486,4.726.125,5.147-1.845,5.147-1.845-2.768-.42-3.3-2.214-3.3-2.214a1.153,1.153,0,0,0,1.467-.369,3.335,3.335,0,0,1-2.568-3.69,3.5,3.5,0,0,0,1.8.7c-.338-.394-3.126-3.756-1.433-5.5a9.138,9.138,0,0,0,7.428,4.035l.36-.091a3.9,3.9,0,0,1-.085-.809,3.863,3.863,0,0,1,3.852-3.874c2.564,0,3.118,1.476,3.118,1.476l1.834-1.107S1393.411,635.16,1392.511,635.524Z" transform="translate(-1375.993 -632.941)" fill="#EBEBEB"/>
</svg>
